# xmcd CD database file
#
# Track frame offsets:
#	150
#	15921
#	34935
#	54398
#	79096
#	100781
#	121194
#	140028
#	160772
#	179539
#	197228
#	212260
#
# Disc length: 3041 seconds
#
# Revision: 1
# Processed by: cddbd v1.5.2PL0 Copyright (c) Steve Scherf et al.
# Submitted via: CDex 1.70beta2
#
DISCID=970bdf0c
DTITLE=Various Artist - Merengue Bailando
DYEAR=1900
DGENRE=Merengue
TTITLE0=Orquesta Latino - Pensando En Ti
TTITLE1=Orquesta Latino - No Me Acostumbro
TTITLE2=Orquesta Latino - Que Locura Enamorarme de ti
TTITLE3=Orquesta Latino - Nacio Varon
TTITLE4=Son Sabor - Pegando Pecho
TTITLE5=Orquesta Sabrosa  - La Guachema
TTITLE6=Polo and Arrieta - Nido De Amor
TTITLE7=Orquesta Latino - Lluvia
TTITLE8=Orquesta Latino - Procura
TTITLE9=Orquesta Latino - Me Gustas
TTITLE10=Grupo Bemba - Una Fotografia
TTITLE11=Orquesta Latino - Juliana
EXTD=
EXTT0=
EXTT1=
EXTT2=
EXTT3=
EXTT4=
EXTT5=
EXTT6=
EXTT7=
EXTT8=
EXTT9=
EXTT10=
EXTT11=
PLAYORDER=
